<svg width="690.0" height="1176.0" viewBox="0 0 690.0 1176.0" xmlns="http://www.w3.org/2000/svg">
<style>/* font and background color specifications */
svg {
    font-family: SFMono-Regular,Consolas,Liberation Mono,Menlo,monospace;
    font-size: 14px;
    font-kerning: normal;
    text-rendering: optimizeLegibility;
    fill: #24292e;
}

/* default key styling */
rect {
    fill: #f6f8fa;
    stroke: #c9cccf;
    stroke-width: 1;
}

/* color accent for combo boxes */
rect.combo {
    fill: #cdf;
}

/* color accent for held keys */
rect.held, rect.combo.held {
    fill: #fdd;
}

/* color accent for ghost (optional) keys */
rect.ghost, rect.combo.ghost {
    fill: #fff0;
    stroke-width: 0;
}

text {
    text-anchor: middle;
    dominant-baseline: middle;
}

/* styling for layer labels */
text.label {
    font-weight: bold;
    text-anchor: start;
    stroke: white;
    stroke-width: 2;
    paint-order: stroke;
}

/* styling for combo tap, and key hold/shifted label text */
text.combo, text.hold, text.shifted {
    font-size: 11px;
}

text.hold {
    text-anchor: middle;
    dominant-baseline: auto;
}

text.shifted {
    text-anchor: middle;
    dominant-baseline: hanging;
}

/* styling for hold/shifted label text in combo box */
text.combo.hold, text.combo.shifted {
    font-size: 8px;
}

/* styling for combo dendrons */
path {
    stroke-width: 1;
    stroke: gray;
    fill: none;
}
</style>
<g class="layer-DEFAULT">
<text x="30.0" y="28.0" class="label">DEFAULT:</text>
<rect rx="6.0" ry="6.0" x="32.0" y="58.0" width="56.0" height="52.0" class=""/>
<text x="60.0" y="84.0" class="tap">Y</text>
<rect rx="6.0" ry="6.0" x="92.0" y="58.0" width="56.0" height="52.0" class=""/>
<text x="120.0" y="84.0" class="tap">C</text>
<text x="120.0" y="105.0" class="hold">CTL</text>
<rect rx="6.0" ry="6.0" x="152.0" y="58.0" width="56.0" height="52.0" class=""/>
<text x="180.0" y="84.0" class="tap">L</text>
<text x="180.0" y="105.0" class="hold">ALT</text>
<rect rx="6.0" ry="6.0" x="212.0" y="58.0" width="56.0" height="52.0" class=""/>
<text x="240.0" y="84.0" class="tap">M</text>
<text x="240.0" y="105.0" class="hold">GUI</text>
<rect rx="6.0" ry="6.0" x="272.0" y="58.0" width="56.0" height="52.0" class=""/>
<text x="300.0" y="84.0" class="tap">K</text>
<text x="300.0" y="105.0" class="hold">BLE</text>
<rect rx="6.0" ry="6.0" x="362.0" y="58.0" width="56.0" height="52.0" class=""/>
<text x="390.0" y="84.0" class="tap">Z</text>
<text x="390.0" y="105.0" class="hold">BLE</text>
<rect rx="6.0" ry="6.0" x="422.0" y="58.0" width="56.0" height="52.0" class=""/>
<text x="450.0" y="84.0" class="tap">F</text>
<text x="450.0" y="105.0" class="hold">GUI</text>
<rect rx="6.0" ry="6.0" x="482.0" y="58.0" width="56.0" height="52.0" class=""/>
<text x="510.0" y="84.0" class="tap">U</text>
<text x="510.0" y="105.0" class="hold">ALT</text>
<rect rx="6.0" ry="6.0" x="542.0" y="58.0" width="56.0" height="52.0" class=""/>
<text x="570.0" y="84.0" class="tap">,</text>
<text x="570.0" y="105.0" class="hold">CTL</text>
<rect rx="6.0" ry="6.0" x="602.0" y="58.0" width="56.0" height="52.0" class=""/>
<text x="630.0" y="84.0" class="tap">&#x27;</text>
<text x="630.0" y="105.0" class="hold">&quot;</text>
<rect rx="6.0" ry="6.0" x="32.0" y="114.0" width="56.0" height="52.0" class=""/>
<text x="60.0" y="140.0" class="tap">I</text>
<rect rx="6.0" ry="6.0" x="92.0" y="114.0" width="56.0" height="52.0" class=""/>
<text x="120.0" y="140.0" class="tap">S</text>
<rect rx="6.0" ry="6.0" x="152.0" y="114.0" width="56.0" height="52.0" class=""/>
<text x="180.0" y="140.0" class="tap">R</text>
<rect rx="6.0" ry="6.0" x="212.0" y="114.0" width="56.0" height="52.0" class=""/>
<text x="240.0" y="140.0" class="tap">T</text>
<rect rx="6.0" ry="6.0" x="272.0" y="114.0" width="56.0" height="52.0" class=""/>
<text x="300.0" y="140.0" class="tap">G</text>
<text x="300.0" y="161.0" class="hold">MEH</text>
<rect rx="6.0" ry="6.0" x="362.0" y="114.0" width="56.0" height="52.0" class=""/>
<text x="390.0" y="140.0" class="tap">P</text>
<text x="390.0" y="161.0" class="hold">MEH</text>
<rect rx="6.0" ry="6.0" x="422.0" y="114.0" width="56.0" height="52.0" class=""/>
<text x="450.0" y="140.0" class="tap">N</text>
<rect rx="6.0" ry="6.0" x="482.0" y="114.0" width="56.0" height="52.0" class=""/>
<text x="510.0" y="140.0" class="tap">E</text>
<rect rx="6.0" ry="6.0" x="542.0" y="114.0" width="56.0" height="52.0" class=""/>
<text x="570.0" y="140.0" class="tap">A</text>
<rect rx="6.0" ry="6.0" x="602.0" y="114.0" width="56.0" height="52.0" class=""/>
<text x="630.0" y="140.0" class="tap">O</text>
<rect rx="6.0" ry="6.0" x="32.0" y="170.0" width="56.0" height="52.0" class=""/>
<text x="60.0" y="196.0" class="tap">Q</text>
<rect rx="6.0" ry="6.0" x="92.0" y="170.0" width="56.0" height="52.0" class=""/>
<text x="120.0" y="196.0" class="tap">V</text>
<rect rx="6.0" ry="6.0" x="152.0" y="170.0" width="56.0" height="52.0" class=""/>
<text x="180.0" y="196.0" class="tap">W</text>
<rect rx="6.0" ry="6.0" x="212.0" y="170.0" width="56.0" height="52.0" class=""/>
<text x="240.0" y="196.0" class="tap">D</text>
<rect rx="6.0" ry="6.0" x="272.0" y="170.0" width="56.0" height="52.0" class=""/>
<text x="300.0" y="196.0" class="tap">J</text>
<rect rx="6.0" ry="6.0" x="362.0" y="170.0" width="56.0" height="52.0" class=""/>
<text x="390.0" y="196.0" class="tap">B</text>
<rect rx="6.0" ry="6.0" x="422.0" y="170.0" width="56.0" height="52.0" class=""/>
<text x="450.0" y="196.0" class="tap">H</text>
<rect rx="6.0" ry="6.0" x="482.0" y="170.0" width="56.0" height="52.0" class=""/>
<text x="510.0" y="196.0" class="tap">/</text>
<text x="510.0" y="217.0" class="hold">?</text>
<rect rx="6.0" ry="6.0" x="542.0" y="170.0" width="56.0" height="52.0" class=""/>
<text x="570.0" y="196.0" class="tap">.</text>
<text x="570.0" y="217.0" class="hold">:</text>
<rect rx="6.0" ry="6.0" x="602.0" y="170.0" width="56.0" height="52.0" class=""/>
<text x="630.0" y="196.0" class="tap">X</text>
<text x="630.0" y="217.0" class="hold">;</text>
<rect rx="6.0" ry="6.0" x="152.0" y="226.0" width="56.0" height="52.0" class=""/>
<text x="180.0" y="252.0" class="tap">TAB</text>
<rect rx="6.0" ry="6.0" x="212.0" y="226.0" width="56.0" height="52.0" class=""/>
<text x="240.0" y="252.0" class="tap">SPC</text>
<text x="240.0" y="273.0" class="hold">NAV</text>
<rect rx="6.0" ry="6.0" x="272.0" y="226.0" width="56.0" height="52.0" class=""/>
<text x="300.0" y="252.0" class="tap">ESC</text>
<text x="300.0" y="273.0" class="hold">SYM</text>
<rect rx="6.0" ry="6.0" x="362.0" y="226.0" width="56.0" height="52.0" class=""/>
<text x="390.0" y="252.0" class="tap">RET</text>
<text x="390.0" y="273.0" class="hold">SYM</text>
<rect rx="6.0" ry="6.0" x="422.0" y="226.0" width="56.0" height="52.0" class=""/>
<text x="450.0" y="252.0" class="tap">BSPC</text>
<text x="450.0" y="273.0" class="hold">NAV</text>
<rect rx="6.0" ry="6.0" x="482.0" y="226.0" width="56.0" height="52.0" class=""/>
<text x="510.0" y="252.0" class="tap">
<tspan x="510.0" dy="-0.6em">sk</tspan><tspan x="510.0" dy="1.2em">SHFT</tspan></text>
</g>
<g class="layer-SYM/NUM">
<text x="30.0" y="308.0" class="label">SYM/NUM:</text>
<rect rx="6.0" ry="6.0" x="32.0" y="338.0" width="56.0" height="52.0" class=""/>
<text x="60.0" y="364.0" class="tap">ESC</text>
<rect rx="6.0" ry="6.0" x="92.0" y="338.0" width="56.0" height="52.0" class=""/>
<text x="120.0" y="364.0" class="tap">&lt;</text>
<text x="120.0" y="385.0" class="hold">CTL</text>
<rect rx="6.0" ry="6.0" x="152.0" y="338.0" width="56.0" height="52.0" class=""/>
<text x="180.0" y="364.0" class="tap">&gt;</text>
<text x="180.0" y="385.0" class="hold">ALT</text>
<rect rx="6.0" ry="6.0" x="212.0" y="338.0" width="56.0" height="52.0" class=""/>
<text x="240.0" y="364.0" class="tap">(</text>
<text x="240.0" y="385.0" class="hold">GUI</text>
<rect rx="6.0" ry="6.0" x="272.0" y="338.0" width="56.0" height="52.0" class=""/>
<text x="300.0" y="364.0" class="tap">)</text>
<rect rx="6.0" ry="6.0" x="362.0" y="338.0" width="56.0" height="52.0" class=""/>
<text x="390.0" y="364.0" class="tap">/</text>
<rect rx="6.0" ry="6.0" x="422.0" y="338.0" width="56.0" height="52.0" class=""/>
<text x="450.0" y="364.0" class="tap">1</text>
<text x="450.0" y="385.0" class="hold">!</text>
<rect rx="6.0" ry="6.0" x="482.0" y="338.0" width="56.0" height="52.0" class=""/>
<text x="510.0" y="364.0" class="tap">2</text>
<text x="510.0" y="385.0" class="hold">@</text>
<rect rx="6.0" ry="6.0" x="542.0" y="338.0" width="56.0" height="52.0" class=""/>
<text x="570.0" y="364.0" class="tap">3</text>
<text x="570.0" y="385.0" class="hold">#</text>
<rect rx="6.0" ry="6.0" x="602.0" y="338.0" width="56.0" height="52.0" class=""/>
<text x="630.0" y="364.0" class="tap">:</text>
<text x="630.0" y="385.0" class="hold">;</text>
<rect rx="6.0" ry="6.0" x="32.0" y="394.0" width="56.0" height="52.0" class=""/>
<text x="60.0" y="420.0" class="tap">~</text>
<rect rx="6.0" ry="6.0" x="92.0" y="394.0" width="56.0" height="52.0" class=""/>
<text x="120.0" y="420.0" class="tap">_</text>
<rect rx="6.0" ry="6.0" x="152.0" y="394.0" width="56.0" height="52.0" class=""/>
<text x="180.0" y="420.0" class="tap">-</text>
<rect rx="6.0" ry="6.0" x="212.0" y="394.0" width="56.0" height="52.0" class=""/>
<text x="240.0" y="420.0" class="tap">[</text>
<rect rx="6.0" ry="6.0" x="272.0" y="394.0" width="56.0" height="52.0" class=""/>
<text x="300.0" y="420.0" class="tap">]</text>
<rect rx="6.0" ry="6.0" x="362.0" y="394.0" width="56.0" height="52.0" class=""/>
<text x="390.0" y="420.0" class="tap">+</text>
<rect rx="6.0" ry="6.0" x="422.0" y="394.0" width="56.0" height="52.0" class=""/>
<text x="450.0" y="420.0" class="tap">4</text>
<text x="450.0" y="441.0" class="hold">$</text>
<rect rx="6.0" ry="6.0" x="482.0" y="394.0" width="56.0" height="52.0" class=""/>
<text x="510.0" y="420.0" class="tap">5</text>
<text x="510.0" y="441.0" class="hold">%</text>
<rect rx="6.0" ry="6.0" x="542.0" y="394.0" width="56.0" height="52.0" class=""/>
<text x="570.0" y="420.0" class="tap">6</text>
<text x="570.0" y="441.0" class="hold">^</text>
<rect rx="6.0" ry="6.0" x="602.0" y="394.0" width="56.0" height="52.0" class=""/>
<text x="630.0" y="420.0" class="tap">0</text>
<rect rx="6.0" ry="6.0" x="32.0" y="450.0" width="56.0" height="52.0" class=""/>
<text x="60.0" y="476.0" class="tap">`</text>
<rect rx="6.0" ry="6.0" x="92.0" y="450.0" width="56.0" height="52.0" class=""/>
<text x="120.0" y="476.0" class="tap">|</text>
<rect rx="6.0" ry="6.0" x="152.0" y="450.0" width="56.0" height="52.0" class=""/>
<text x="180.0" y="476.0" class="tap">\</text>
<rect rx="6.0" ry="6.0" x="212.0" y="450.0" width="56.0" height="52.0" class=""/>
<text x="240.0" y="476.0" class="tap">{</text>
<rect rx="6.0" ry="6.0" x="272.0" y="450.0" width="56.0" height="52.0" class=""/>
<text x="300.0" y="476.0" class="tap">}</text>
<rect rx="6.0" ry="6.0" x="362.0" y="450.0" width="56.0" height="52.0" class=""/>
<text x="390.0" y="476.0" class="tap">-</text>
<rect rx="6.0" ry="6.0" x="422.0" y="450.0" width="56.0" height="52.0" class=""/>
<text x="450.0" y="476.0" class="tap">7</text>
<text x="450.0" y="497.0" class="hold">&amp;</text>
<rect rx="6.0" ry="6.0" x="482.0" y="450.0" width="56.0" height="52.0" class=""/>
<text x="510.0" y="476.0" class="tap">8</text>
<text x="510.0" y="497.0" class="hold">*</text>
<rect rx="6.0" ry="6.0" x="542.0" y="450.0" width="56.0" height="52.0" class=""/>
<text x="570.0" y="476.0" class="tap">9</text>
<rect rx="6.0" ry="6.0" x="602.0" y="450.0" width="56.0" height="52.0" class=""/>
<text x="630.0" y="476.0" class="tap">=</text>
<rect rx="6.0" ry="6.0" x="152.0" y="506.0" width="56.0" height="52.0" class=""/>
<text x="180.0" y="532.0" class="tap">TAB</text>
<rect rx="6.0" ry="6.0" x="212.0" y="506.0" width="56.0" height="52.0" class=""/>
<text x="240.0" y="532.0" class="tap">SPC</text>
<rect rx="6.0" ry="6.0" x="272.0" y="506.0" width="56.0" height="52.0" class="held"/>
<text x="300.0" y="532.0" class="held tap">ESC</text>
<rect rx="6.0" ry="6.0" x="362.0" y="506.0" width="56.0" height="52.0" class="held"/>
<text x="390.0" y="532.0" class="held tap">RET</text>
<rect rx="6.0" ry="6.0" x="422.0" y="506.0" width="56.0" height="52.0" class=""/>
<text x="450.0" y="532.0" class="tap">BSPC</text>
<rect rx="6.0" ry="6.0" x="482.0" y="506.0" width="56.0" height="52.0" class=""/>
<text x="510.0" y="532.0" class="tap">
<tspan x="510.0" dy="-0.6em">sk</tspan><tspan x="510.0" dy="1.2em">SHFT</tspan></text>
</g>
<g class="layer-NAV">
<text x="30.0" y="588.0" class="label">NAV:</text>
<rect rx="6.0" ry="6.0" x="32.0" y="618.0" width="56.0" height="52.0" class=""/>
<text x="60.0" y="644.0" class="tap">SHFT</text>
<rect rx="6.0" ry="6.0" x="92.0" y="618.0" width="56.0" height="52.0" class=""/>
<text x="120.0" y="644.0" class="tap">CTL</text>
<rect rx="6.0" ry="6.0" x="152.0" y="618.0" width="56.0" height="52.0" class=""/>
<text x="180.0" y="644.0" class="tap">ALT</text>
<rect rx="6.0" ry="6.0" x="212.0" y="618.0" width="56.0" height="52.0" class=""/>
<text x="240.0" y="644.0" class="tap">GUI</text>
<rect rx="6.0" ry="6.0" x="272.0" y="618.0" width="56.0" height="52.0" class=""/>
<text x="300.0" y="644.0" class="tap">
<tspan x="300.0" dy="-0.6em">NUM</tspan><tspan x="300.0" dy="1.2em">LOCK</tspan></text>
<rect rx="6.0" ry="6.0" x="362.0" y="618.0" width="56.0" height="52.0" class=""/>
<text x="390.0" y="644.0" class="tap">DEL</text>
<rect rx="6.0" ry="6.0" x="422.0" y="618.0" width="56.0" height="52.0" class=""/>
<text x="450.0" y="644.0" class="tap">HOME</text>
<rect rx="6.0" ry="6.0" x="482.0" y="618.0" width="56.0" height="52.0" class=""/>
<text x="510.0" y="644.0" class="tap">UP</text>
<rect rx="6.0" ry="6.0" x="542.0" y="618.0" width="56.0" height="52.0" class=""/>
<text x="570.0" y="644.0" class="tap">END</text>
<rect rx="6.0" ry="6.0" x="602.0" y="618.0" width="56.0" height="52.0" class=""/>
<text x="630.0" y="644.0" class="tap">
<tspan x="630.0" dy="-0.6em">PG</tspan><tspan x="630.0" dy="1.2em">UP</tspan></text>
<rect rx="6.0" ry="6.0" x="32.0" y="674.0" width="56.0" height="52.0" class=""/>
<text x="60.0" y="700.0" class="tap">VOL+</text>
<rect rx="6.0" ry="6.0" x="92.0" y="674.0" width="56.0" height="52.0" class=""/>
<text x="120.0" y="700.0" class="tap">
<tspan x="120.0" dy="-0.6em">PRV</tspan><tspan x="120.0" dy="1.2em">TAB</tspan></text>
<rect rx="6.0" ry="6.0" x="152.0" y="674.0" width="56.0" height="52.0" class=""/>
<text x="180.0" y="700.0" class="tap">
<tspan x="180.0" dy="-0.6em">NXT</tspan><tspan x="180.0" dy="1.2em">TAB</tspan></text>
<rect rx="6.0" ry="6.0" x="212.0" y="674.0" width="56.0" height="52.0" class=""/>
<rect rx="6.0" ry="6.0" x="272.0" y="674.0" width="56.0" height="52.0" class=""/>
<rect rx="6.0" ry="6.0" x="362.0" y="674.0" width="56.0" height="52.0" class=""/>
<text x="390.0" y="700.0" class="tap">COPY</text>
<text x="390.0" y="721.0" class="hold">CUT</text>
<rect rx="6.0" ry="6.0" x="422.0" y="674.0" width="56.0" height="52.0" class=""/>
<text x="450.0" y="700.0" class="tap">LEFT</text>
<rect rx="6.0" ry="6.0" x="482.0" y="674.0" width="56.0" height="52.0" class=""/>
<text x="510.0" y="700.0" class="tap">DOWN</text>
<rect rx="6.0" ry="6.0" x="542.0" y="674.0" width="56.0" height="52.0" class=""/>
<text x="570.0" y="700.0" class="tap">RIGHT</text>
<rect rx="6.0" ry="6.0" x="602.0" y="674.0" width="56.0" height="52.0" class=""/>
<text x="630.0" y="700.0" class="tap">
<tspan x="630.0" dy="-0.6em">PG</tspan><tspan x="630.0" dy="1.2em">DN</tspan></text>
<rect rx="6.0" ry="6.0" x="32.0" y="730.0" width="56.0" height="52.0" class=""/>
<text x="60.0" y="756.0" class="tap">VOL-</text>
<rect rx="6.0" ry="6.0" x="92.0" y="730.0" width="56.0" height="52.0" class=""/>
<text x="120.0" y="756.0" class="tap">BACK</text>
<rect rx="6.0" ry="6.0" x="152.0" y="730.0" width="56.0" height="52.0" class=""/>
<text x="180.0" y="756.0" class="tap">FWRD</text>
<rect rx="6.0" ry="6.0" x="212.0" y="730.0" width="56.0" height="52.0" class=""/>
<rect rx="6.0" ry="6.0" x="272.0" y="730.0" width="56.0" height="52.0" class=""/>
<rect rx="6.0" ry="6.0" x="362.0" y="730.0" width="56.0" height="52.0" class=""/>
<text x="390.0" y="756.0" class="tap">PASTE</text>
<text x="390.0" y="777.0" class="hold">PST file</text>
<rect rx="6.0" ry="6.0" x="422.0" y="730.0" width="56.0" height="52.0" class=""/>
<rect rx="6.0" ry="6.0" x="482.0" y="730.0" width="56.0" height="52.0" class=""/>
<rect rx="6.0" ry="6.0" x="542.0" y="730.0" width="56.0" height="52.0" class=""/>
<text x="570.0" y="756.0" class="tap">,</text>
<rect rx="6.0" ry="6.0" x="602.0" y="730.0" width="56.0" height="52.0" class=""/>
<text x="630.0" y="756.0" class="tap">;</text>
<rect rx="6.0" ry="6.0" x="152.0" y="786.0" width="56.0" height="52.0" class=""/>
<text x="180.0" y="812.0" class="tap">TAB</text>
<rect rx="6.0" ry="6.0" x="212.0" y="786.0" width="56.0" height="52.0" class="held"/>
<text x="240.0" y="812.0" class="held tap">SPC</text>
<rect rx="6.0" ry="6.0" x="272.0" y="786.0" width="56.0" height="52.0" class=""/>
<text x="300.0" y="812.0" class="tap">ESC</text>
<rect rx="6.0" ry="6.0" x="362.0" y="786.0" width="56.0" height="52.0" class=""/>
<text x="390.0" y="812.0" class="tap">RET</text>
<rect rx="6.0" ry="6.0" x="422.0" y="786.0" width="56.0" height="52.0" class="held"/>
<text x="450.0" y="812.0" class="held tap">BSPC</text>
<rect rx="6.0" ry="6.0" x="482.0" y="786.0" width="56.0" height="52.0" class=""/>
<text x="510.0" y="812.0" class="tap">
<tspan x="510.0" dy="-0.6em">sk</tspan><tspan x="510.0" dy="1.2em">SHFT</tspan></text>
</g>
<g class="layer-BLE">
<text x="30.0" y="868.0" class="label">BLE:</text>
<rect rx="6.0" ry="6.0" x="32.0" y="898.0" width="56.0" height="52.0" class=""/>
<text x="60.0" y="924.0" class="tap">
<tspan x="60.0" dy="-0.6em">OUT</tspan><tspan x="60.0" dy="1.2em">BLE</tspan></text>
<rect rx="6.0" ry="6.0" x="92.0" y="898.0" width="56.0" height="52.0" class=""/>
<rect rx="6.0" ry="6.0" x="152.0" y="898.0" width="56.0" height="52.0" class=""/>
<rect rx="6.0" ry="6.0" x="212.0" y="898.0" width="56.0" height="52.0" class=""/>
<rect rx="6.0" ry="6.0" x="272.0" y="898.0" width="56.0" height="52.0" class="held"/>
<rect rx="6.0" ry="6.0" x="362.0" y="898.0" width="56.0" height="52.0" class="held"/>
<rect rx="6.0" ry="6.0" x="422.0" y="898.0" width="56.0" height="52.0" class=""/>
<rect rx="6.0" ry="6.0" x="482.0" y="898.0" width="56.0" height="52.0" class=""/>
<rect rx="6.0" ry="6.0" x="542.0" y="898.0" width="56.0" height="52.0" class=""/>
<rect rx="6.0" ry="6.0" x="602.0" y="898.0" width="56.0" height="52.0" class=""/>
<text x="630.0" y="924.0" class="tap">
<tspan x="630.0" dy="-0.6em">OUT</tspan><tspan x="630.0" dy="1.2em">BLE</tspan></text>
<rect rx="6.0" ry="6.0" x="32.0" y="954.0" width="56.0" height="52.0" class=""/>
<rect rx="6.0" ry="6.0" x="92.0" y="954.0" width="56.0" height="52.0" class=""/>
<rect rx="6.0" ry="6.0" x="152.0" y="954.0" width="56.0" height="52.0" class=""/>
<rect rx="6.0" ry="6.0" x="212.0" y="954.0" width="56.0" height="52.0" class=""/>
<text x="240.0" y="980.0" class="tap">BOOT</text>
<rect rx="6.0" ry="6.0" x="272.0" y="954.0" width="56.0" height="52.0" class=""/>
<rect rx="6.0" ry="6.0" x="362.0" y="954.0" width="56.0" height="52.0" class=""/>
<rect rx="6.0" ry="6.0" x="422.0" y="954.0" width="56.0" height="52.0" class=""/>
<text x="450.0" y="980.0" class="tap">BOOT</text>
<rect rx="6.0" ry="6.0" x="482.0" y="954.0" width="56.0" height="52.0" class=""/>
<rect rx="6.0" ry="6.0" x="542.0" y="954.0" width="56.0" height="52.0" class=""/>
<rect rx="6.0" ry="6.0" x="602.0" y="954.0" width="56.0" height="52.0" class=""/>
<rect rx="6.0" ry="6.0" x="32.0" y="1010.0" width="56.0" height="52.0" class=""/>
<text x="60.0" y="1036.0" class="tap">RESET</text>
<rect rx="6.0" ry="6.0" x="92.0" y="1010.0" width="56.0" height="52.0" class=""/>
<rect rx="6.0" ry="6.0" x="152.0" y="1010.0" width="56.0" height="52.0" class=""/>
<rect rx="6.0" ry="6.0" x="212.0" y="1010.0" width="56.0" height="52.0" class=""/>
<rect rx="6.0" ry="6.0" x="272.0" y="1010.0" width="56.0" height="52.0" class=""/>
<rect rx="6.0" ry="6.0" x="362.0" y="1010.0" width="56.0" height="52.0" class=""/>
<rect rx="6.0" ry="6.0" x="422.0" y="1010.0" width="56.0" height="52.0" class=""/>
<rect rx="6.0" ry="6.0" x="482.0" y="1010.0" width="56.0" height="52.0" class=""/>
<rect rx="6.0" ry="6.0" x="542.0" y="1010.0" width="56.0" height="52.0" class=""/>
<rect rx="6.0" ry="6.0" x="602.0" y="1010.0" width="56.0" height="52.0" class=""/>
<text x="630.0" y="1036.0" class="tap">RESET</text>
<rect rx="6.0" ry="6.0" x="152.0" y="1066.0" width="56.0" height="52.0" class=""/>
<rect rx="6.0" ry="6.0" x="212.0" y="1066.0" width="56.0" height="52.0" class=""/>
<rect rx="6.0" ry="6.0" x="272.0" y="1066.0" width="56.0" height="52.0" class=""/>
<rect rx="6.0" ry="6.0" x="362.0" y="1066.0" width="56.0" height="52.0" class=""/>
<rect rx="6.0" ry="6.0" x="422.0" y="1066.0" width="56.0" height="52.0" class=""/>
<rect rx="6.0" ry="6.0" x="482.0" y="1066.0" width="56.0" height="52.0" class=""/>
</g>
</svg>
